<?xml version="1.0" ?><svg id="Layer_1" style="enable-background:new 0 0 120 120;" version="1.1" viewBox="0 0 120 120" xml:space="preserve" xmlns="http://www.w3.org/2000/svg" xmlns:xlink="http://www.w3.org/1999/xlink"><style type="text/css">
	.st0{fill:#FF8751;}
	.st1{opacity:0.1;}
	.st2{fill:#C7C8C9;}
	.st3{fill:#F7F7F7;}
	.st4{fill:#EAEAEA;}
</style><g><path class="st0" d="M95.8,30.5H65.3H54.7H24.2c-2.6,0-4.7,2.1-4.7,4.7V88c0,2.6,2.1,4.7,4.7,4.7h30.5v0.1c0,2.9,2.4,5.3,5.3,5.3   s5.3-2.4,5.3-5.3v-0.1h30.5c2.6,0,4.7-2.1,4.7-4.7V35.3C100.5,32.7,98.4,30.5,95.8,30.5z"/><path class="st1" d="M95.8,89.1H65.3v0.1c0,2.9-2.4,5.3-5.3,5.3s-5.3-2.4-5.3-5.3v-0.1H24.2c-2.6,0-4.7-2.1-4.7-4.7V88   c0,2.6,2.1,4.7,4.7,4.7h30.5v0.1c0,2.9,2.4,5.3,5.3,5.3s5.3-2.4,5.3-5.3v-0.1h30.5c2.6,0,4.7-2.1,4.7-4.7v-3.6   C100.5,87,98.4,89.1,95.8,89.1z"/><path class="st2" d="M95.8,85.1c0,0-12.8-3.8-17.1-3.8C74,81.3,60,85.1,60,85.1s-14-3.8-18.7-3.8c-4.3,0-17.1,3.8-17.1,3.8V25.7   c0,0,12.8-3.8,17.1-3.8c4.7,0,18.7,3.8,18.7,3.8s14-3.8,18.7-3.8c4.3,0,17.1,3.8,17.1,3.8V85.1z"/><path class="st3" d="M91.5,81.7c0,0-11.3-3.6-15-3.6c-4.1,0-16.5,3.6-16.5,3.6s-12.4-3.6-16.5-3.6c-3.8,0-15,3.6-15,3.6V24.5   c0,0,8.8-2.5,12.6-2.7c4.6-0.1,19,3.6,19,3.6s14.2-3.6,18.9-3.6c3.8,0,12.6,2.7,12.6,2.7V81.7z"/><path class="st4" d="M59.3,81.5c0.4,0.1,0.7,0.2,0.7,0.2s0.3-0.1,0.7-0.2V25.3c-0.4,0.1-0.7,0.2-0.7,0.2s-0.2-0.1-0.7-0.2V81.5z"/><g><path class="st2" d="M54.4,32.9c-0.3-0.1-7.6-1.9-10.2-1.9s-9.9,1.9-10.2,1.9c-0.5,0.1-0.8,0.7-0.7,1.2c0.1,0.4,0.5,0.7,1,0.7    c0.1,0,0.2,0,0.3,0c2-0.5,7.8-1.9,9.7-1.9s7.6,1.4,9.7,1.9c0.5,0.1,1.1-0.2,1.2-0.7C55.2,33.6,54.9,33.1,54.4,32.9z"/><path class="st2" d="M54.4,41.8c-0.3-0.1-7.6-1.9-10.2-1.9s-9.9,1.9-10.2,1.9c-0.5,0.1-0.8,0.7-0.7,1.2c0.1,0.4,0.5,0.7,1,0.7    c0.1,0,0.2,0,0.3,0c2-0.5,7.8-1.9,9.7-1.9s7.6,1.4,9.7,1.9c0.5,0.1,1.1-0.2,1.2-0.7C55.2,42.5,54.9,41.9,54.4,41.8z"/><path class="st2" d="M54.4,50.7c-0.3-0.1-7.6-1.9-10.2-1.9s-9.9,1.9-10.2,1.9c-0.5,0.1-0.8,0.7-0.7,1.2c0.1,0.4,0.5,0.7,1,0.7    c0.1,0,0.2,0,0.3,0c2-0.5,7.8-1.9,9.7-1.9s7.6,1.4,9.7,1.9c0.5,0.1,1.1-0.2,1.2-0.7C55.2,51.3,54.9,50.8,54.4,50.7z"/><path class="st2" d="M54.4,59.6c-0.3-0.1-7.6-1.9-10.2-1.9s-9.9,1.9-10.2,1.9c-0.5,0.1-0.8,0.7-0.7,1.2c0.1,0.4,0.5,0.7,1,0.7    c0.1,0,0.2,0,0.3,0c2-0.5,7.8-1.9,9.7-1.9s7.6,1.4,9.7,1.9c0.5,0.1,1.1-0.2,1.2-0.7C55.2,60.2,54.9,59.7,54.4,59.6z"/><path class="st2" d="M54.4,68.5c-0.3-0.1-7.6-1.9-10.2-1.9s-9.9,1.9-10.2,1.9c-0.5,0.1-0.8,0.7-0.7,1.2c0.1,0.4,0.5,0.7,1,0.7    c0.1,0,0.2,0,0.3,0c2-0.5,7.8-1.9,9.7-1.9s7.6,1.4,9.7,1.9c0.5,0.1,1.1-0.2,1.2-0.7C55.2,69.1,54.9,68.6,54.4,68.5z"/><path class="st2" d="M65.9,34.8c0.1,0,0.2,0,0.3,0c2-0.5,7.8-1.9,9.7-1.9s7.6,1.4,9.7,1.9c0.5,0.1,1.1-0.2,1.2-0.7    c0.1-0.5-0.2-1-0.7-1.2c-0.3-0.1-7.6-1.9-10.2-1.9s-9.9,1.9-10.2,1.9c-0.5,0.1-0.8,0.7-0.7,1.2C65,34.5,65.4,34.8,65.9,34.8z"/><path class="st2" d="M86,41.8c-0.3-0.1-7.6-1.9-10.2-1.9s-9.9,1.9-10.2,1.9c-0.5,0.1-0.8,0.7-0.7,1.2c0.1,0.4,0.5,0.7,1,0.7    c0.1,0,0.2,0,0.3,0c2-0.5,7.8-1.9,9.7-1.9s7.6,1.4,9.7,1.9c0.5,0.1,1.1-0.2,1.2-0.7C86.9,42.5,86.6,41.9,86,41.8z"/><path class="st2" d="M86,50.7c-0.3-0.1-7.6-1.9-10.2-1.9s-9.9,1.9-10.2,1.9c-0.5,0.1-0.8,0.7-0.7,1.2c0.1,0.4,0.5,0.7,1,0.7    c0.1,0,0.2,0,0.3,0c2-0.5,7.8-1.9,9.7-1.9s7.6,1.4,9.7,1.9c0.5,0.1,1.1-0.2,1.2-0.7C86.9,51.3,86.6,50.8,86,50.7z"/><path class="st2" d="M86,59.6c-0.3-0.1-7.6-1.9-10.2-1.9s-9.9,1.9-10.2,1.9c-0.5,0.1-0.8,0.7-0.7,1.2c0.1,0.4,0.5,0.7,1,0.7    c0.1,0,0.2,0,0.3,0c2-0.5,7.8-1.9,9.7-1.9s7.6,1.4,9.7,1.9c0.5,0.1,1.1-0.2,1.2-0.7C86.9,60.2,86.6,59.7,86,59.6z"/><path class="st2" d="M86,68.5c-0.3-0.1-7.6-1.9-10.2-1.9s-9.9,1.9-10.2,1.9c-0.5,0.1-0.8,0.7-0.7,1.2c0.1,0.4,0.5,0.7,1,0.7    c0.1,0,0.2,0,0.3,0c2-0.5,7.8-1.9,9.7-1.9s7.6,1.4,9.7,1.9c0.5,0.1,1.1-0.2,1.2-0.7C86.9,69.1,86.6,68.6,86,68.5z"/></g></g></svg>